<?xml version="1.0" encoding="utf-8"?>
<!-- Generator: Adobe Illustrator 24.0.1, SVG Export Plug-In . SVG Version: 6.00 Build 0)  -->
<svg version="1.1" id="Layer_1" xmlns="http://www.w3.org/2000/svg" xmlns:xlink="http://www.w3.org/1999/xlink" x="0px" y="0px"
	 viewBox="0 0 860.7 363" style="enable-background:new 0 0 860.7 363;" xml:space="preserve">
<style type="text/css">
	.st0{fill:#FFFFFF;}
</style>
<g>
	<path class="st0" d="M127.7,161.4c2.7-16.8,3.8-27.8,4.3-38.3h39.2c0,5.8-0.2,12.1-1.1,19.3c7.8-12.1,21.7-22.4,39.2-22.4
		c15.5,0,26,7.4,30,21.7c11.6-15.7,24.9-21.7,39.9-21.7c22.4,0,37.6,14.6,32.5,46.8l-11.4,73.5h-40.1l10.8-68.3
		c2-13.2-2.2-19.5-12.1-19.5c-10.3,0-18.4,7.2-20.6,20.8l-10.5,67H188l10.8-68.5c2-13-2.5-19.3-12.1-19.3c-11,0-18.4,7.6-20.6,20.8
		l-10.5,67h-40.1L127.7,161.4z"/>
	<path class="st0" d="M382.6,215.4c11.6,0,18.1-5.4,20.8-13.9h37.9c-5.8,27.1-28.4,41.4-59.8,41.4c-33.8,0-60.3-17-60.3-53.1
		c0-41.9,28.2-69.9,66.8-69.9c38.3,0,61.6,24.2,55.1,65.4l-0.9,5.6h-81.5v0.9C360.7,205.3,366.5,215.4,382.6,215.4z M363.3,168.4
		h42.1c1.1-13.2-3.4-21.9-17.5-21.9C377.7,146.4,368,152.5,363.3,168.4z"/>
	<path class="st0" d="M450.7,123.1h41.4l10.8,75.9l35.4-75.9h39.9L517,240.3h-43.5L450.7,123.1z"/>
	<path class="st0" d="M566.7,189.4c-0.2-39.9,27.8-69.2,67.6-69.2c31.8,0,59.6,17.5,59.6,54c0,40.5-27.6,68.8-67.6,68.8
		C594.5,243,567,225.5,566.7,189.4z M653.6,172.6c0-12.8-6.3-22.6-19.9-22.6c-17.5,0-26.9,17-26.9,39.9c0,12.1,4.9,23.3,20.2,23.3
		C644.9,213.2,653.6,195.7,653.6,172.6z"/>
	<path class="st0" d="M708.3,138.3h-5.9l0.6-3.8h16.6l-0.6,3.8h-5.9l-2.6,16.8h-4.9L708.3,138.3z M722.8,134.5h6.1l2.9,12.7
		l6.9-12.7h6.5l-3.3,20.6h-4.9l2.2-14.3l-8.1,14.3h-1.5l-3.6-14.3l-2.2,14.3h-4.4L722.8,134.5z"/>
</g>
</svg>
